<svg width="232" height="172" viewBox="0 0 232 172" fill="none" xmlns="http://www.w3.org/2000/svg">
<g id="Frame 1321317908" clip-path="url(#clip0_3177_27355)">
<g id="Group 1321316967">
<circle id="Ellipse 17845" cx="117" cy="97" r="97" fill="#F2F2F2"/>
<rect id="Rectangle 34625017" x="9" y="115" width="216" height="79" fill="white"/>
<g id="vuesax/linear/receipt-search">
<g id="Group">
<g id="Group 1321316760">
<path id="Vector" d="M113.5 143C134.211 143 151 126.211 151 105.5C151 84.7895 134.211 68 113.5 68C92.7895 68 76 84.7895 76 105.5C76 126.211 92.7895 143 113.5 143Z" fill="white" stroke="#3E3E3E" stroke-width="5" stroke-linecap="round" stroke-linejoin="round"/>
<path id="Vector_2" d="M140.867 159.832L128.968 142" stroke="#3E3E3E" stroke-width="5" stroke-linecap="round" stroke-linejoin="round"/>
<path id="Vector_3" d="M68 115H3" stroke="#3E3E3E" stroke-width="5" stroke-linecap="round" stroke-linejoin="round"/>
<path id="Vector_4" d="M226.882 115H159" stroke="#3E3E3E" stroke-width="5" stroke-linecap="round" stroke-linejoin="round"/>
<path id="Vector_5" d="M114.559 57.8216L114.383 45.9824" stroke="#3E3E3E" stroke-width="4" stroke-linecap="round" stroke-linejoin="round"/>
<path id="Vector_6" d="M144.001 66.4069L154.062 56.5986" stroke="#3E3E3E" stroke-width="4" stroke-linecap="round" stroke-linejoin="round"/>
<path id="Vector_7" d="M80.0892 67.7188L71.3418 57" stroke="#3E3E3E" stroke-width="4" stroke-linecap="round" stroke-linejoin="round"/>
</g>
</g>
</g>
<path id="Vector_8" d="M109.28 93.4634C106.63 95.2634 103.13 95.2633 100.48 93.3633" stroke="#3E3E3E" stroke-width="4" stroke-miterlimit="10" stroke-linecap="round" stroke-linejoin="round"/>
<path id="Vector_9" d="M129.28 93.4634C126.63 95.2634 123.13 95.2633 120.48 93.3633" stroke="#3E3E3E" stroke-width="4" stroke-miterlimit="10" stroke-linecap="round" stroke-linejoin="round"/>
<path id="Vector_10" d="M104.799 117C106.37 112.457 109.25 110 114.457 110C119.426 110 122.383 112.237 124 116.388" stroke="#3E3E3E" stroke-width="4" stroke-miterlimit="10" stroke-linecap="round" stroke-linejoin="round"/>
</g>
</g>
<defs>
<clipPath id="clip0_3177_27355">
<rect width="232" height="172" fill="white"/>
</clipPath>
</defs>
</svg>
